<svg xmlns="http://www.w3.org/2000/svg" style="display: none;">
    <!-- 
    SVG Sprite Sheet for Altium Viewer Storybook
    Icons extracted from production HTML patterns
  -->

    <!-- Eye/Visibility Icons -->
    <symbol id="svg-sprite--eye-16-2" viewBox="0 0 16 16">
        <path fill="currentColor"
            d="M8 3C4.5 3 1.5 5.5 0 8c1.5 2.5 4.5 5 8 5s6.5-2.5 8-5c-1.5-2.5-4.5-5-8-5zm0 8c-1.66 0-3-1.34-3-3s1.34-3 3-3 3 1.34 3 3-1.34 3-3 3zm0-5c-1.1 0-2 .9-2 2s.9 2 2 2 2-.9 2-2-.9-2-2-2z" />
    </symbol>

    <symbol id="svg-sprite--eye-off-16-2" viewBox="0 0 16 16">
        <path fill="currentColor"
            d="M8 3c-.67 0-1.32.09-1.94.24l1.47 1.47c.15-.02.31-.04.47-.04 1.66 0 3 1.34 3 3 0 .16-.02.32-.04.47l2.37 2.37c1.06-.89 1.93-1.98 2.54-3.21C14 4.8 11.14 3 8 3zm-1.5 1.14L8 5.64c-.55.55-1 1.14-1.31 1.81L5.19 6c.42-.67.98-1.26 1.66-1.73l-.35-.13zM1.5 2.14L3.36 4C1.8 5.06.63 6.44 0 8c1.5 2.5 4.5 5 8 5 1.18 0 2.3-.24 3.33-.66l2.03 2.03.71-.71-12-12-.57.48zM8 11c-1.66 0-3-1.34-3-3 0-.36.07-.7.18-1.03l3.85 3.85c-.33.11-.67.18-1.03.18z" />
    </symbol>

    <!-- Utility Icons -->
    <symbol id="svg-sprite--utility-checkmark" viewBox="0 0 16 16">
        <path fill="currentColor" d="M6 10.78L2.22 7 1 8.22l5 5 9-9L13.78 3 6 10.78z" />
    </symbol>

    <symbol id="svg-sprite--utility-chevron-down" viewBox="0 0 16 16">
        <path fill="currentColor" d="M8 10.5L2.5 5 4 3.5l4 4 4-4L13.5 5 8 10.5z" />
    </symbol>

    <symbol id="svg-sprite--utility-chevron-up" viewBox="0 0 16 16">
        <path fill="currentColor" d="M8 5.5L13.5 11 12 12.5l-4-4-4 4L2.5 11 8 5.5z" />
    </symbol>

    <symbol id="svg-sprite--utility-chevron-right" viewBox="0 0 16 16">
        <path fill="currentColor" d="M10.5 8L5 2.5 6.5 1l6 6-6 6L5 11.5 10.5 8z" />
    </symbol>

    <symbol id="svg-sprite--utility-chevron-left" viewBox="0 0 16 16">
        <path fill="currentColor" d="M5.5 8L11 13.5 9.5 15l-6-6 6-6L11 4.5 5.5 8z" />
    </symbol>

    <!-- UI Icons -->
    <symbol id="svg-sprite--cross-16" viewBox="0 0 16 16">
        <path fill="currentColor"
            d="M12.95 4.46L9.41 8l3.54 3.54-1.41 1.41L8 9.41l-3.54 3.54-1.41-1.41L6.59 8 3.05 4.46l1.41-1.41L8 6.59l3.54-3.54 1.41 1.41z" />
    </symbol>

    <symbol id="svg-sprite--revert" viewBox="0 0 16 16">
        <path fill="currentColor"
            d="M8 2C4.69 2 2 4.69 2 8s2.69 6 6 6 6-2.69 6-6h-1.5c0 2.48-2.02 4.5-4.5 4.5S3.5 10.48 3.5 8 5.52 3.5 8 3.5c1.24 0 2.36.5 3.18 1.32L9 7h5V2l-1.82 1.82C11.04 2.7 9.6 2 8 2z" />
    </symbol>

    <symbol id="svg-sprite--plus-16" viewBox="0 0 16 16">
        <path fill="currentColor" d="M13 7H9V3H7v4H3v2h4v4h2V9h4V7z" />
    </symbol>

    <symbol id="svg-sprite--minus-16" viewBox="0 0 16 16">
        <path fill="currentColor" d="M13 7H3v2h10V7z" />
    </symbol>

    <!-- PCB/Schematic Icons -->
    <symbol id="svg-sprite--pcb-16" viewBox="0 0 16 16">
        <path fill="currentColor"
            d="M14 2H2c-.55 0-1 .45-1 1v10c0 .55.45 1 1 1h12c.55 0 1-.45 1-1V3c0-.55-.45-1-1-1zm-1 10H3V4h10v8zM5 6h2v2H5V6zm4 0h2v2H9V6zM5 9h2v2H5V9zm4 0h2v2H9V9z" />
    </symbol>

    <symbol id="svg-sprite--schematic-16" viewBox="0 0 16 16">
        <path fill="currentColor"
            d="M14 6V4h-2V2h-2v2H6V2H4v2H2v2h2v4H2v2h2v2h2v-2h4v2h2v-2h2v-2h-2V6h2zM6 10V6h4v4H6z" />
    </symbol>

    <symbol id="svg-sprite--folder-16" viewBox="0 0 16 16">
        <path fill="currentColor"
            d="M14 4H8l-1-2H2c-.55 0-1 .45-1 1v10c0 .55.45 1 1 1h12c.55 0 1-.45 1-1V5c0-.55-.45-1-1-1z" />
    </symbol>

    <symbol id="svg-sprite--file-16" viewBox="0 0 16 16">
        <path fill="currentColor"
            d="M9 1H4c-.55 0-1 .45-1 1v12c0 .55.45 1 1 1h8c.55 0 1-.45 1-1V5L9 1zm2 12H5V3h3v3h3v7z" />
    </symbol>

    <!-- Navigation Icons -->
    <symbol id="svg-sprite--search-16" viewBox="0 0 16 16">
        <path fill="currentColor"
            d="M11.7 10.3c.9-1.2 1.4-2.6 1.4-4.2 0-3.9-3.1-7-7-7S0 2.2 0 6.1s3.1 7 7 7c1.6 0 3-.5 4.2-1.4l3 3 1.4-1.4-3-3zM7 11c-2.8 0-5-2.2-5-5s2.2-5 5-5 5 2.2 5 5-2.2 5-5 5z" />
    </symbol>

    <symbol id="svg-sprite--settings-16" viewBox="0 0 16 16">
        <path fill="currentColor"
            d="M13.9 8c0-.3 0-.7-.1-1l2-1.6-.9-1.5-2.4.6c-.4-.4-.9-.8-1.5-1L10.5 1h-1.9L8.5 3.5c-.6.2-1.1.6-1.5 1l-2.4-.6-.9 1.5 2 1.6c0 .3-.1.7-.1 1s0 .7.1 1l-2 1.6.9 1.5 2.4-.6c.4.4.9.8 1.5 1l.5 2.5h1.9l.5-2.5c.6-.2 1.1-.6 1.5-1l2.4.6.9-1.5-2-1.6c-.1-.3 0-.7 0-1zm-5.4 2c-1.1 0-2-.9-2-2s.9-2 2-2 2 .9 2 2-.9 2-2 2z" />
    </symbol>

    <symbol id="svg-sprite--layers-16" viewBox="0 0 16 16">
        <path fill="currentColor" d="M8 1L1 5l7 4 7-4-7-4zM1 8l7 4 7-4M1 11l7 4 7-4" />
    </symbol>

    <symbol id="svg-sprite--visibility-16" viewBox="0 0 16 16">
        <path fill="currentColor"
            d="M8 3C4.5 3 1.5 5.5 0 8c1.5 2.5 4.5 5 8 5s6.5-2.5 8-5c-1.5-2.5-4.5-5-8-5zm0 8c-1.66 0-3-1.34-3-3s1.34-3 3-3 3 1.34 3 3-1.34 3-3 3z" />
    </symbol>

    <symbol id="svg-sprite--visibility-off-16" viewBox="0 0 16 16">
        <path fill="currentColor"
            d="M8 3c.67 0 1.32.09 1.94.24L8.47 4.71C8.32 4.69 8.16 4.67 8 4.67c-1.66 0-3 1.34-3 3 0 .16.02.32.04.47L2.67 10.51C1.61 9.62.74 8.53.13 7.3 1.5 4.8 4.14 3 8 3zM1.5 2.14L3.36 4C1.8 5.06.63 6.44 0 8c1.5 2.5 4.5 5 8 5 1.18 0 2.3-.24 3.33-.66l2.03 2.03.71-.71-12-12-.57.48z" />
    </symbol>

    <!-- Zoom Icons -->
    <symbol id="svg-sprite--zoom-in-16" viewBox="0 0 16 16">
        <path fill="currentColor"
            d="M11.7 10.3c.9-1.2 1.4-2.6 1.4-4.2 0-3.9-3.1-7-7-7S0 2.2 0 6.1s3.1 7 7 7c1.6 0 3-.5 4.2-1.4l3 3 1.4-1.4-3-3zM7 11c-2.8 0-5-2.2-5-5s2.2-5 5-5 5 2.2 5 5-2.2 5-5 5zM8 4H6v2H4v2h2v2h2V8h2V6H8V4z" />
    </symbol>

    <symbol id="svg-sprite--zoom-out-16" viewBox="0 0 16 16">
        <path fill="currentColor"
            d="M11.7 10.3c.9-1.2 1.4-2.6 1.4-4.2 0-3.9-3.1-7-7-7S0 2.2 0 6.1s3.1 7 7 7c1.6 0 3-.5 4.2-1.4l3 3 1.4-1.4-3-3zM7 11c-2.8 0-5-2.2-5-5s2.2-5 5-5 5 2.2 5 5-2.2 5-5 5zM4 6h6v2H4V6z" />
    </symbol>

    <symbol id="svg-sprite--fullscreen-16" viewBox="0 0 16 16">
        <path fill="currentColor"
            d="M2 6H0V0h6v2H2v4zM0 10h2v4h4v2H0v-6zm14 4h-4v2h6v-6h-2v4zm2-14h-6v2h4v4h2V0z" />
    </symbol>

    <!-- Action Icons -->
    <symbol id="svg-sprite--download-16" viewBox="0 0 16 16">
        <path fill="currentColor" d="M14 9v4H2V9H0v6h16V9h-2zM8 10L4 6h3V0h2v6h3l-4 4z" />
    </symbol>

    <symbol id="svg-sprite--share-16" viewBox="0 0 16 16">
        <path fill="currentColor"
            d="M13 11c-.7 0-1.37.27-1.88.72L5.91 8.44c.06-.14.09-.29.09-.44s-.03-.3-.09-.44l5.21-3.28c.51.45 1.18.72 1.88.72 1.66 0 3-1.34 3-3s-1.34-3-3-3-3 1.34-3 3c0 .15.03.3.09.44L4.88 5.72C4.37 5.27 3.7 5 3 5c-1.66 0-3 1.34-3 3s1.34 3 3 3c.7 0 1.37-.27 1.88-.72l5.21 3.28c-.06.14-.09.29-.09.44 0 1.66 1.34 3 3 3s3-1.34 3-3-1.34-3-3-3z" />
    </symbol>

    <symbol id="svg-sprite--help-16" viewBox="0 0 16 16">
        <path fill="currentColor"
            d="M8 0C3.58 0 0 3.58 0 8s3.58 8 8 8 8-3.58 8-8-3.58-8-8-8zm1 13H7v-2h2v2zm1.93-6.52c-.14.32-.35.64-.62.97l-.84.77c-.28.25-.44.54-.5.85-.05.24-.08.57-.08.96H7v-.5c0-.42.1-.77.3-1.06l.88-.93c.16-.19.29-.38.38-.58.09-.19.14-.39.14-.6 0-.3-.11-.54-.32-.73-.21-.19-.5-.28-.87-.28-.36 0-.65.09-.87.28-.21.18-.34.43-.37.73H4.5c.06-.79.35-1.4.88-1.84.53-.43 1.21-.65 2.04-.65.88 0 1.58.23 2.12.69.54.46.81 1.06.81 1.8 0 .43-.14.84-.42 1.22z" />
    </symbol>

    <symbol id="svg-sprite--image-broken-16" viewBox="0 0 16 16">
        <path fill="currentColor"
            d="M14 2H2c-.55 0-1 .45-1 1v10c0 .55.45 1 1 1h12c.55 0 1-.45 1-1V3c0-.55-.45-1-1-1zM3 12l2.5-3 1.75 2.13L10 8l3 4H3z" />
        <path fill="currentColor" d="M1 1l14 14m0-14L1 15" stroke="currentColor" stroke-width="1.5" />
    </symbol>

    <!-- File Upload -->
    <symbol id="svg-sprite--file-upload-32" viewBox="0 0 32 32">
        <path fill="currentColor" d="M26 20v6H6v-6H4v8h24v-8h-2zM7 11l9-9 9 9h-6v9h-6v-9H7z" />
    </symbol>

    <!-- Error -->
    <symbol id="svg-sprite--error-64" viewBox="0 0 64 64">
        <path fill="currentColor"
            d="M32 4C16.5 4 4 16.5 4 32s12.5 28 28 28 28-12.5 28-28S47.5 4 32 4zm2 42h-4v-4h4v4zm0-10h-4V18h4v18z" />
    </symbol>

    <!-- PCB Object Icons (from production app-object-panel) WITH COLORS -->
    <!-- Arcs - gray -->
    <symbol id="svg-sprite-filled--icon-arcs" viewBox="0 0 16 16">
        <path fill="#8E8E93" d="M8 2c3.31 0 6 2.69 6 6h-2c0-2.21-1.79-4-4-4V2z" />
        <path fill="#8E8E93" d="M8 14c-3.31 0-6-2.69-6-6h2c0 2.21 1.79 4 4 4v2z" />
    </symbol>

    <!-- Pads - orange/yellow -->
    <symbol id="svg-sprite-filled--icon-pads" viewBox="0 0 16 16">
        <circle fill="#F5A623" cx="8" cy="8" r="6" />
    </symbol>

    <!-- Vias - teal/cyan -->
    <symbol id="svg-sprite-filled--icon-vias" viewBox="0 0 16 16">
        <circle fill="#50E3C2" cx="8" cy="8" r="6" />
        <circle fill="#1c1c1e" cx="8" cy="8" r="2.5" />
    </symbol>

    <!-- Tracks - gray line -->
    <symbol id="svg-sprite-filled--icon-tracks" viewBox="0 0 16 16">
        <path fill="#8E8E93" d="M1 7h14v2H1z" />
    </symbol>

    <!-- Texts - gray A -->
    <symbol id="svg-sprite-filled--icon-texts" viewBox="0 0 16 16">
        <path fill="#8E8E93" d="M8 2L3 14h2l1-3h4l1 3h2L8 2zm0 3.5L9.5 10h-3L8 5.5z" />
    </symbol>

    <!-- Fills - blue square -->
    <symbol id="svg-sprite-filled--icon-fills" viewBox="0 0 16 16">
        <rect fill="#4A90D9" x="2" y="2" width="12" height="12" rx="1" />
    </symbol>

    <!-- Polygons - gray pentagon -->
    <symbol id="svg-sprite-filled--icon-polygons" viewBox="0 0 16 16">
        <polygon fill="#8E8E93" points="8,1 15,5 13,14 3,14 1,5" />
    </symbol>

    <!-- Regions - gray -->
    <symbol id="svg-sprite-filled--icon-regions" viewBox="0 0 16 16">
        <circle fill="#8E8E93" cx="8" cy="8" r="6" />
        <circle fill="#1c1c1e" cx="8" cy="8" r="3" />
    </symbol>

    <!-- 3D Body - blue cube -->
    <symbol id="svg-sprite-filled--icon-3d-body" viewBox="0 0 16 16">
        <path fill="#4A90D9" d="M8 1L2 4v8l6 3 6-3V4L8 1zM4 5.5l4 2v5l-4-2v-5zm8 0v5l-4 2v-5l4-2z" />
    </symbol>

    <!-- Keepouts - gray diamond with line -->
    <symbol id="svg-sprite-filled--icon-keepouts" viewBox="0 0 16 16">
        <path fill="#8E8E93" d="M8 1L1 8l7 7 7-7-7-7zM3.4 8L8 3.4 12.6 8 8 12.6 3.4 8z" />
        <path fill="#8E8E93" d="M5 7h6v2H5z" />
    </symbol>

    <!-- Connection Lines - gray dashed -->
    <symbol id="svg-sprite-filled--icon-connection-lines" viewBox="0 0 16 16">
        <circle fill="#8E8E93" cx="3" cy="3" r="2" />
        <circle fill="#8E8E93" cx="13" cy="13" r="2" />
        <path fill="none" stroke="#8E8E93" stroke-width="1.5" stroke-dasharray="2,2" d="M3 3L13 13" />
    </symbol>

    <!-- Components - gray IC chip -->
    <symbol id="svg-sprite-filled--icon-components" viewBox="0 0 16 16">
        <rect fill="#8E8E93" x="4" y="2" width="8" height="12" rx="1" />
        <rect fill="#8E8E93" x="2" y="4" width="2" height="2" />
        <rect fill="#8E8E93" x="2" y="7" width="2" height="2" />
        <rect fill="#8E8E93" x="2" y="10" width="2" height="2" />
        <rect fill="#8E8E93" x="12" y="4" width="2" height="2" />
        <rect fill="#8E8E93" x="12" y="7" width="2" height="2" />
        <rect fill="#8E8E93" x="12" y="10" width="2" height="2" />
    </symbol>
</svg>