<svg xmlns="http://www.w3.org/2000/svg" style="display: none;">
    <!-- 
    SVG Sprite Sheet for Altium Viewer Storybook
    Icons extracted from production HTML patterns
  -->

    <!-- Eye/Visibility Icons -->
    <symbol id="svg-sprite--eye-16-2" viewBox="0 0 16 16">
        <path fill="currentColor"
            d="M8 3C4.5 3 1.5 5.5 0 8c1.5 2.5 4.5 5 8 5s6.5-2.5 8-5c-1.5-2.5-4.5-5-8-5zm0 8c-1.66 0-3-1.34-3-3s1.34-3 3-3 3 1.34 3 3-1.34 3-3 3zm0-5c-1.1 0-2 .9-2 2s.9 2 2 2 2-.9 2-2-.9-2-2-2z" />
    </symbol>

    <symbol id="svg-sprite--eye-off-16-2" viewBox="0 0 16 16">
        <path fill="currentColor"
            d="M8 3c-.67 0-1.32.09-1.94.24l1.47 1.47c.15-.02.31-.04.47-.04 1.66 0 3 1.34 3 3 0 .16-.02.32-.04.47l2.37 2.37c1.06-.89 1.93-1.98 2.54-3.21C14 4.8 11.14 3 8 3zm-1.5 1.14L8 5.64c-.55.55-1 1.14-1.31 1.81L5.19 6c.42-.67.98-1.26 1.66-1.73l-.35-.13zM1.5 2.14L3.36 4C1.8 5.06.63 6.44 0 8c1.5 2.5 4.5 5 8 5 1.18 0 2.3-.24 3.33-.66l2.03 2.03.71-.71-12-12-.57.48zM8 11c-1.66 0-3-1.34-3-3 0-.36.07-.7.18-1.03l3.85 3.85c-.33.11-.67.18-1.03.18z" />
    </symbol>

    <!-- Utility Icons -->
    <symbol id="svg-sprite--utility-checkmark" viewBox="0 0 16 16">
        <path fill="currentColor" d="M6 10.78L2.22 7 1 8.22l5 5 9-9L13.78 3 6 10.78z" />
    </symbol>

    <symbol id="svg-sprite--utility-chevron-down" viewBox="0 0 16 16">
        <path fill="currentColor" d="M8 10.5L2.5 5 4 3.5l4 4 4-4L13.5 5 8 10.5z" />
    </symbol>

    <symbol id="svg-sprite--utility-chevron-up" viewBox="0 0 16 16">
        <path fill="currentColor" d="M8 5.5L13.5 11 12 12.5l-4-4-4 4L2.5 11 8 5.5z" />
    </symbol>

    <symbol id="svg-sprite--utility-chevron-right" viewBox="0 0 16 16">
        <path fill="currentColor" d="M10.5 8L5 2.5 6.5 1l6 6-6 6L5 11.5 10.5 8z" />
    </symbol>

    <symbol id="svg-sprite--utility-chevron-left" viewBox="0 0 16 16">
        <path fill="currentColor" d="M5.5 8L11 13.5 9.5 15l-6-6 6-6L11 4.5 5.5 8z" />
    </symbol>

    <!-- UI Icons -->
    <symbol id="svg-sprite--cross-16" viewBox="0 0 16 16">
        <path fill="currentColor"
            d="M12.95 4.46L9.41 8l3.54 3.54-1.41 1.41L8 9.41l-3.54 3.54-1.41-1.41L6.59 8 3.05 4.46l1.41-1.41L8 6.59l3.54-3.54 1.41 1.41z" />
    </symbol>

    <symbol id="svg-sprite--revert" viewBox="0 0 16 16">
        <path fill="currentColor"
            d="M8 2C4.69 2 2 4.69 2 8s2.69 6 6 6 6-2.69 6-6h-1.5c0 2.48-2.02 4.5-4.5 4.5S3.5 10.48 3.5 8 5.52 3.5 8 3.5c1.24 0 2.36.5 3.18 1.32L9 7h5V2l-1.82 1.82C11.04 2.7 9.6 2 8 2z" />
    </symbol>

    <symbol id="svg-sprite--plus-16" viewBox="0 0 16 16">
        <path fill="currentColor" d="M13 7H9V3H7v4H3v2h4v4h2V9h4V7z" />
    </symbol>

    <symbol id="svg-sprite--minus-16" viewBox="0 0 16 16">
        <path fill="currentColor" d="M13 7H3v2h10V7z" />
    </symbol>

    <!-- PCB/Schematic Icons -->
    <symbol id="svg-sprite--pcb-16" viewBox="0 0 16 16">
        <path fill="currentColor"
            d="M14 2H2c-.55 0-1 .45-1 1v10c0 .55.45 1 1 1h12c.55 0 1-.45 1-1V3c0-.55-.45-1-1-1zm-1 10H3V4h10v8zM5 6h2v2H5V6zm4 0h2v2H9V6zM5 9h2v2H5V9zm4 0h2v2H9V9z" />
    </symbol>

    <symbol id="svg-sprite--schematic-16" viewBox="0 0 16 16">
        <path fill="currentColor"
            d="M14 6V4h-2V2h-2v2H6V2H4v2H2v2h2v4H2v2h2v2h2v-2h4v2h2v-2h2v-2h-2V6h2zM6 10V6h4v4H6z" />
    </symbol>

    <symbol id="svg-sprite--folder-16" viewBox="0 0 16 16">
        <path fill="currentColor"
            d="M14 4H8l-1-2H2c-.55 0-1 .45-1 1v10c0 .55.45 1 1 1h12c.55 0 1-.45 1-1V5c0-.55-.45-1-1-1z" />
    </symbol>

    <symbol id="svg-sprite--file-16" viewBox="0 0 16 16">
        <path fill="currentColor"
            d="M9 1H4c-.55 0-1 .45-1 1v12c0 .55.45 1 1 1h8c.55 0 1-.45 1-1V5L9 1zm2 12H5V3h3v3h3v7z" />
    </symbol>

    <!-- Navigation Icons -->
    <symbol id="svg-sprite--search-16" viewBox="0 0 16 16">
        <path fill="currentColor"
            d="M11.7 10.3c.9-1.2 1.4-2.6 1.4-4.2 0-3.9-3.1-7-7-7S0 2.2 0 6.1s3.1 7 7 7c1.6 0 3-.5 4.2-1.4l3 3 1.4-1.4-3-3zM7 11c-2.8 0-5-2.2-5-5s2.2-5 5-5 5 2.2 5 5-2.2 5-5 5z" />
    </symbol>

    <symbol id="svg-sprite--settings-16" viewBox="0 0 16 16">
        <path fill="currentColor"
            d="M13.9 8c0-.3 0-.7-.1-1l2-1.6-.9-1.5-2.4.6c-.4-.4-.9-.8-1.5-1L10.5 1h-1.9L8.5 3.5c-.6.2-1.1.6-1.5 1l-2.4-.6-.9 1.5 2 1.6c0 .3-.1.7-.1 1s0 .7.1 1l-2 1.6.9 1.5 2.4-.6c.4.4.9.8 1.5 1l.5 2.5h1.9l.5-2.5c.6-.2 1.1-.6 1.5-1l2.4.6.9-1.5-2-1.6c-.1-.3 0-.7 0-1zm-5.4 2c-1.1 0-2-.9-2-2s.9-2 2-2 2 .9 2 2-.9 2-2 2z" />
    </symbol>

    <symbol id="svg-sprite--layers-16" viewBox="0 0 16 16">
        <path fill="currentColor" d="M8 1L1 5l7 4 7-4-7-4zM1 8l7 4 7-4M1 11l7 4 7-4" />
    </symbol>

    <symbol id="svg-sprite--visibility-16" viewBox="0 0 16 16">
        <path fill="currentColor"
            d="M8 3C4.5 3 1.5 5.5 0 8c1.5 2.5 4.5 5 8 5s6.5-2.5 8-5c-1.5-2.5-4.5-5-8-5zm0 8c-1.66 0-3-1.34-3-3s1.34-3 3-3 3 1.34 3 3-1.34 3-3 3z" />
    </symbol>

    <symbol id="svg-sprite--visibility-off-16" viewBox="0 0 16 16">
        <path fill="currentColor"
            d="M8 3c.67 0 1.32.09 1.94.24L8.47 4.71C8.32 4.69 8.16 4.67 8 4.67c-1.66 0-3 1.34-3 3 0 .16.02.32.04.47L2.67 10.51C1.61 9.62.74 8.53.13 7.3 1.5 4.8 4.14 3 8 3zM1.5 2.14L3.36 4C1.8 5.06.63 6.44 0 8c1.5 2.5 4.5 5 8 5 1.18 0 2.3-.24 3.33-.66l2.03 2.03.71-.71-12-12-.57.48z" />
    </symbol>

    <!-- Zoom Icons -->
    <symbol id="svg-sprite--zoom-in-16" viewBox="0 0 16 16">
        <path fill="currentColor"
            d="M11.7 10.3c.9-1.2 1.4-2.6 1.4-4.2 0-3.9-3.1-7-7-7S0 2.2 0 6.1s3.1 7 7 7c1.6 0 3-.5 4.2-1.4l3 3 1.4-1.4-3-3zM7 11c-2.8 0-5-2.2-5-5s2.2-5 5-5 5 2.2 5 5-2.2 5-5 5zM8 4H6v2H4v2h2v2h2V8h2V6H8V4z" />
    </symbol>

    <symbol id="svg-sprite--zoom-out-16" viewBox="0 0 16 16">
        <path fill="currentColor"
            d="M11.7 10.3c.9-1.2 1.4-2.6 1.4-4.2 0-3.9-3.1-7-7-7S0 2.2 0 6.1s3.1 7 7 7c1.6 0 3-.5 4.2-1.4l3 3 1.4-1.4-3-3zM7 11c-2.8 0-5-2.2-5-5s2.2-5 5-5 5 2.2 5 5-2.2 5-5 5zM4 6h6v2H4V6z" />
    </symbol>

    <symbol id="svg-sprite--fullscreen-16" viewBox="0 0 16 16">
        <path fill="currentColor"
            d="M2 6H0V0h6v2H2v4zM0 10h2v4h4v2H0v-6zm14 4h-4v2h6v-6h-2v4zm2-14h-6v2h4v4h2V0z" />
    </symbol>

    <!-- Action Icons -->
    <symbol id="svg-sprite--download-16" viewBox="0 0 16 16">
        <path fill="currentColor" d="M14 9v4H2V9H0v6h16V9h-2zM8 10L4 6h3V0h2v6h3l-4 4z" />
    </symbol>

    <symbol id="svg-sprite--share-16" viewBox="0 0 16 16">
        <path fill="currentColor"
            d="M13 11c-.7 0-1.37.27-1.88.72L5.91 8.44c.06-.14.09-.29.09-.44s-.03-.3-.09-.44l5.21-3.28c.51.45 1.18.72 1.88.72 1.66 0 3-1.34 3-3s-1.34-3-3-3-3 1.34-3 3c0 .15.03.3.09.44L4.88 5.72C4.37 5.27 3.7 5 3 5c-1.66 0-3 1.34-3 3s1.34 3 3 3c.7 0 1.37-.27 1.88-.72l5.21 3.28c-.06.14-.09.29-.09.44 0 1.66 1.34 3 3 3s3-1.34 3-3-1.34-3-3-3z" />
    </symbol>

    <symbol id="svg-sprite--help-16" viewBox="0 0 16 16">
        <path fill="currentColor"
            d="M8 0C3.58 0 0 3.58 0 8s3.58 8 8 8 8-3.58 8-8-3.58-8-8-8zm1 13H7v-2h2v2zm1.93-6.52c-.14.32-.35.64-.62.97l-.84.77c-.28.25-.44.54-.5.85-.05.24-.08.57-.08.96H7v-.5c0-.42.1-.77.3-1.06l.88-.93c.16-.19.29-.38.38-.58.09-.19.14-.39.14-.6 0-.3-.11-.54-.32-.73-.21-.19-.5-.28-.87-.28-.36 0-.65.09-.87.28-.21.18-.34.43-.37.73H4.5c.06-.79.35-1.4.88-1.84.53-.43 1.21-.65 2.04-.65.88 0 1.58.23 2.12.69.54.46.81 1.06.81 1.8 0 .43-.14.84-.42 1.22z" />
    </symbol>

    <symbol id="svg-sprite--image-broken-16" viewBox="0 0 16 16">
        <path fill="currentColor"
            d="M14 2H2c-.55 0-1 .45-1 1v10c0 .55.45 1 1 1h12c.55 0 1-.45 1-1V3c0-.55-.45-1-1-1zM3 12l2.5-3 1.75 2.13L10 8l3 4H3z" />
        <path fill="currentColor" d="M1 1l14 14m0-14L1 15" stroke="currentColor" stroke-width="1.5" />
    </symbol>

    <!-- File Upload -->
    <symbol id="svg-sprite--file-upload-32" viewBox="0 0 32 32">
        <path fill="currentColor" d="M26 20v6H6v-6H4v8h24v-8h-2zM7 11l9-9 9 9h-6v9h-6v-9H7z" />
    </symbol>

    <!-- Error -->
    <symbol id="svg-sprite--error-64" viewBox="0 0 64 64">
        <path fill="currentColor"
            d="M32 4C16.5 4 4 16.5 4 32s12.5 28 28 28 28-12.5 28-28S47.5 4 32 4zm2 42h-4v-4h4v4zm0-10h-4V18h4v18z" />
    </symbol>

    <!-- PCB Object Icons (from production app-object-panel) WITH COLORS -->
    <!-- Arcs - gray -->
    <symbol id="svg-sprite-filled--icon-arcs" viewBox="0 0 16 16">
        <path fill="#8E8E93" d="M8 2c3.31 0 6 2.69 6 6h-2c0-2.21-1.79-4-4-4V2z" />
        <path fill="#8E8E93" d="M8 14c-3.31 0-6-2.69-6-6h2c0 2.21 1.79 4 4 4v2z" />
    </symbol>

    <!-- Pads - orange/yellow -->
    <symbol id="svg-sprite-filled--icon-pads" viewBox="0 0 16 16">
        <circle fill="#F5A623" cx="8" cy="8" r="6" />
    </symbol>

    <!-- Vias - teal/cyan -->
    <symbol id="svg-sprite-filled--icon-vias" viewBox="0 0 16 16">
        <circle fill="#50E3C2" cx="8" cy="8" r="6" />
        <circle fill="#1c1c1e" cx="8" cy="8" r="2.5" />
    </symbol>

    <!-- Tracks - gray line -->
    <symbol id="svg-sprite-filled--icon-tracks" viewBox="0 0 16 16">
        <path fill="#8E8E93" d="M1 7h14v2H1z" />
    </symbol>

    <!-- Texts - gray A -->
    <symbol id="svg-sprite-filled--icon-texts" viewBox="0 0 16 16">
        <path fill="#8E8E93" d="M8 2L3 14h2l1-3h4l1 3h2L8 2zm0 3.5L9.5 10h-3L8 5.5z" />
    </symbol>

    <!-- Fills - blue square -->
    <symbol id="svg-sprite-filled--icon-fills" viewBox="0 0 16 16">
        <rect fill="#4A90D9" x="2" y="2" width="12" height="12" rx="1" />
    </symbol>

    <!-- Polygons - gray pentagon -->
    <symbol id="svg-sprite-filled--icon-polygons" viewBox="0 0 16 16">
        <polygon fill="#8E8E93" points="8,1 15,5 13,14 3,14 1,5" />
    </symbol>

    <!-- Regions - gray -->
    <symbol id="svg-sprite-filled--icon-regions" viewBox="0 0 16 16">
        <circle fill="#8E8E93" cx="8" cy="8" r="6" />
        <circle fill="#1c1c1e" cx="8" cy="8" r="3" />
    </symbol>

    <!-- 3D Body - blue cube -->
    <symbol id="svg-sprite-filled--icon-3d-body" viewBox="0 0 16 16">
        <path fill="#4A90D9" d="M8 1L2 4v8l6 3 6-3V4L8 1zM4 5.5l4 2v5l-4-2v-5zm8 0v5l-4 2v-5l4-2z" />
    </symbol>

    <!-- Keepouts - gray diamond with line -->
    <symbol id="svg-sprite-filled--icon-keepouts" viewBox="0 0 16 16">
        <path fill="#8E8E93" d="M8 1L1 8l7 7 7-7-7-7zM3.4 8L8 3.4 12.6 8 8 12.6 3.4 8z" />
        <path fill="#8E8E93" d="M5 7h6v2H5z" />
    </symbol>

    <!-- Connection Lines - gray dashed -->
    <symbol id="svg-sprite-filled--icon-connection-lines" viewBox="0 0 16 16">
        <circle fill="#8E8E93" cx="3" cy="3" r="2" />
        <circle fill="#8E8E93" cx="13" cy="13" r="2" />
        <path fill="none" stroke="#8E8E93" stroke-width="1.5" stroke-dasharray="2,2" d="M3 3L13 13" />
    </symbol>

    <!-- Components - gray IC chip -->
    <symbol id="svg-sprite-filled--icon-components" viewBox="0 0 16 16">
        <rect fill="#8E8E93" x="4" y="2" width="8" height="12" rx="1" />
        <rect fill="#8E8E93" x="2" y="4" width="2" height="2" />
        <rect fill="#8E8E93" x="2" y="7" width="2" height="2" />
        <rect fill="#8E8E93" x="2" y="10" width="2" height="2" />
        <rect fill="#8E8E93" x="12" y="4" width="2" height="2" />
        <rect fill="#8E8E93" x="12" y="7" width="2" height="2" />
        <rect fill="#8E8E93" x="12" y="10" width="2" height="2" />
    </symbol>

    <!-- Comment Icons -->
    <symbol id="svg-sprite--comments" viewBox="0 0 64 64">
        <path fill="currentColor"
            d="M40.667 18a.667.667 0 0 0-.667.667v10H30A.667.667 0 1 0 30 30h10v10a.667.667 0 0 0 1.333 0V30h10a.667.667 0 0 0 0-1.333h-10v-10a.667.667 0 0 0-.666-.667Z" />
        <path fill="currentColor" fill-rule="evenodd" clip-rule="evenodd"
            d="M14.793 42.667c-.298 0-.587.1-.822.283L1.078 53.823A.667.667 0 0 1 0 53.298V8a8 8 0 0 1 8-8h41.333a8 8 0 0 1 8 8v2.777A8.002 8.002 0 0 1 64 18.667v36.661a.667.667 0 0 1-1.09.515l-9.874-7.539a1.333 1.333 0 0 0-.848-.304H25.333a8.004 8.004 0 0 1-7.544-5.333h-2.996Zm2.65-1.334h-2.855c-.597 0-1.177.2-1.646.57L1.333 51.8V8A6.667 6.667 0 0 1 8 1.333h41.333A6.667 6.667 0 0 1 56 8v2.667H25.333a8 8 0 0 0-8 8V40c0 .454.038.9.11 1.333ZM56 12H25.333a6.667 6.667 0 0 0-6.666 6.667V40a6.667 6.667 0 0 0 6.666 6.667h27.033c.625 0 1.23.22 1.71.62l8.59 6.587V18.667A6.667 6.667 0 0 0 56 12Z" />
    </symbol>

    <symbol id="svg-sprite--bubble-add-16" viewBox="0 0 16 16">
        <path fill="currentColor"
            d="M8 3.5a.5.5 0 0 0-.5.5v2.5H5a.5.5 0 0 0 0 1h2.5V10a.5.5 0 0 0 1 0V7.5H11a.5.5 0 0 0 0-1H8.5V4a.5.5 0 0 0-.5-.5" />
        <path fill="currentColor" fill-rule="evenodd" clip-rule="evenodd"
            d="M0 3.5A2.5 2.5 0 0 1 2.5 1h11A2.5 2.5 0 0 1 16 3.5v7a2.5 2.5 0 0 1-2.5 2.5H7.693L4.67 15.735c-.642.581-1.67.125-1.67-.742V13h-.5A2.5 2.5 0 0 1 0 10.5zM2.5 2A1.5 1.5 0 0 0 1 3.5v7A1.5 1.5 0 0 0 2.5 12H3a1 1 0 0 1 1 1v1.993l3.022-2.734a1 1 0 0 1 .67-.259H13.5a1.5 1.5 0 0 0 1.5-1.5v-7A1.5 1.5 0 0 0 13.5 2z" />
    </symbol>

    <!-- Download Panel Icons (filled/multicolor) -->
    <symbol id="svg-sprite-filled--project-pcb-16" viewBox="0 0 16 16">
        <path d="M16 3.5V14H5V0h7.5L16 3.5z" fill="#9FB0C1" />
        <path d="M12 .5V4h3.5v9.5h-10V.5H12z" fill="#F3FCFF" />
        <path d="M15.25 3.5H12.5V.75l2.75 2.75z" fill="#F3FCFF" />
        <path d="M6 1v12.5h-.5V.5H12V1H6z" fill="#fff" />
        <path d="M4.015 10.5h-2v.5h2v-.5z" fill="#846F4D" />
        <path d="M12.375 6.625H.125v7.75h12.25v-7.75z" fill="#05B584" />
        <path d="M12.25 6.75v7.5h-12v-7.5h12zm.25-.25H0v8h12.5v-8z" fill="#0C7D55" />
        <path d="M12 8.5H6.5V9H12v-.5zm0 1H6.5v.5H12v-.5zm0 1H6.5v.5H12v-.5z" fill="#005D3C" />
        <path d="M9.5 7H9v5.5h.5V7zm1 0H10v5.5h.5V7zm-2 0H8v5.5h.5V7z" fill="#005D3C" />
        <path d="M2.5 8.5h-1v.75h1V8.5z" fill="#0C7D55" />
        <path d="M2.5 8h-1v1h1V8z" fill="#fff" />
        <path
            d="M2.5 10.5h-1v.75h1v-.75zm0 2h-1v.75h1v-.75zm3 0h-2v.75h2v-.75zm0-2h-2v.75h2v-.75zm0-2h-2v.75h2V8.5z"
            fill="#0C7D55" />
        <path
            d="M2.5 10h-1v1h1v-1zm0 2h-1v1h1v-1zm2.847 1H3.653c-.085 0-.153-.085-.153-.19v-.62c0-.105.068-.19.153-.19h1.694c.085 0 .153.085.153.19v.62c0 .105-.068.19-.153.19zm.003-2h-1.7c-.083 0-.15-.084-.15-.188v-.624c0-.104.067-.188.15-.188h1.7c.083 0 .15.084.15.188v.624c0 .104-.067.188-.15.188zm.029-2H3.621c-.067 0-.121-.068-.121-.151V8.15c0-.083.054-.151.12-.151h1.76c.067 0 .12.068.12.151v.698c0 .083-.053.151-.12.151zm5.496-.875h-3.25v3.25h3.25v-3.25z"
            fill="#fff" />
        <path d="M10.75 8.25v3h-3v-3h3zM11 8H7.5v3.5H11V8z" fill="#A1A9AF" />
        <path d="M12.5 12.875H6.625V16H12.5v-3.125z" fill="#0C7D55" />
        <path
            d="M12.125 13.25h-1v2.375h1V13.25zm-1.375 0h-1v2.375h1V13.25zm-1.375 0h-1v2.375h1V13.25zM8 13.25H7v2.375h1V13.25z"
            fill="#fff" />
        <path opacity=".32" d="M.5 7h11.75v-.25h-12v7.5H.5V7z" fill="#fff" />
    </symbol>

    <symbol id="svg-sprite-filled--gerber-16" viewBox="0 0 16 16">
        <path d="M12.5 2H0v12h16V5.5L12.5 2Z" fill="#9FB0C1" />
        <path d="M15.5 6H12V2.5H.5v11h15V6Z" fill="#F3FCFF" />
        <path d="M12.5 2.75V5.5h2.75L12.5 2.75Z" fill="#F3FCFF" />
        <path d="M1 3h11v-.5H.5v11H1V3Z" fill="#fff" />
        <path
            d="M2.5 3h-1v10h1V3Zm7 10V9l1-1h4v2H11l-.5.5V13h-1Zm-6-10h1v4h-1V3Zm3 0h-1v4h1V3Zm1 0h1v4h-1V3ZM6 13a1.5 1.5 0 1 0 0-3 1.5 1.5 0 0 0 0 3Z"
            fill="#DB3E2E" />
    </symbol>

    <symbol id="svg-sprite-filled--assembly" viewBox="0 0 16 16">
        <path d="M14 6.5H2v7h12v-7Z" fill="#0C7D55" />
        <path d="M13.5 7h-11v6h11V7Z" fill="#05B584" />
        <path opacity=".5" d="M3 7.5V13h-.5V7h11v.5H3Z" fill="#fff" />
        <path d="M14 11.5H7.5V15H14v-3.5Z" fill="#0C7D55" />
        <path d="M8 12h1v2.5H8V12Zm3 0h1v2.5h-1V12Zm-1.5 0h1v2.5h-1V12Zm3 0h1v2.5h-1V12Z"
            fill="#E8F0C8" />
        <path d="M5.5 2h-2v2h2V2Z" fill="#E4E8EA" />
        <path
            d="M7 3.5v1H6v1H5v-1H4v1H3v-1H2v-1h1v-1H2v-1h1v-1h1v1h1v-1h1v1h1v1H6v1h1ZM5.5 2h-2v2h2V2ZM15 3.5h-1v1h-1v1h-1v-1h-1v1h-1v-1H9v-1H8v-1h1v-1h1v-1h1v1h1v-1h1v1h1v1h1v1Z"
            fill="#6699B2" />
        <path d="M13.5 2h-4v2h4V2Z" fill="#E4E8EA" />
    </symbol>

    <symbol id="svg-sprite-filled--schematic-16" viewBox="0 0 16 16">
        <path fill-rule="evenodd" clip-rule="evenodd"
            d="M16 2H0v12h16V2Zm-1 1H1v10h7V9h7V3Zm-6 7v3h6v-3H9Z" fill="currentColor" />
    </symbol>

    <symbol id="svg-sprite-filled--mcad-16" viewBox="0 0 16 16">
        <g clip-path="url(#mcad-clip)">
            <path fill="#fff" fill-opacity=".5"
                d="m2.543 11.133-.117-.22-2.65 1.4.116.22zm11.074.067.118-.221 2.65 1.4-.117.22zM7.865 0h.25v2.993h-.25z" />
            <path d="M2.133 11.211V5.295l5.86-2.122.076 11.337-.071.05-5.865-3.349z" fill="#9DBEFF"
                stroke="#4E7AD6" stroke-width=".25" />
            <path d="m13.875 11.199-5.84 3.349-.045-12.05 5.885 2.79v5.91z" fill="#84A8EF"
                stroke="#4E7AD6" stroke-width=".25" />
            <path d="M8.004 8.368 2.272 5.216l5.732-2.999 5.732 2.999-5.732 3.152z" fill="#BAD1FF"
                stroke="#4E7AD6" stroke-width=".25" />
        </g>
        <defs>
            <clipPath id="mcad-clip">
                <path fill="#fff" d="M0 0h16v16H0z" />
            </clipPath>
        </defs>
    </symbol>

    <symbol id="svg-sprite-filled--bom-16" viewBox="0 0 16 16">
        <path d="M14 6H0v10h14V6z" fill="#947F3E" />
        <path d="M8 11.5v4H.5v-9h13v5H8zm.5 2.5h5v1.5h-5V14zm5-.5h-5V12h5v1.5z" fill="#E5C889" />
        <path d="M1 7h12.5v-.5H.5v9H1V7zm12.5 7.5V14h-5v1.5H9v-1h4.5zm-5-2v1H9v-1h4.5V12h-5v.5z"
            opacity=".5" fill="#fff" />
        <path d="M8 0h8v10.5H8V0z" fill="#9FB0C1" />
        <path d="M8.5.5h7V10h-7V.5z" fill="#F3FCFF" />
        <path d="M9 1h6.5V.5h-7V10H9V1z" fill="#fff" />
        <path
            d="M9.5 2h5v.5h-5V2zm0 1.5h5V4h-5v-.5zm0 1.5h5v.5h-5V5zm5 1.5h-5V7h5v-.5zm0 1.5h-5v.5h5V8z"
            fill="#9FB0C1" />
    </symbol>

    <!-- HelpPanel Icons -->
    <symbol id="svg-sprite--controls-12" viewBox="0 0 10 12">
        <path
            d="M5.714 7.5V4.37c.832-.31 1.429-1.14 1.429-2.12C7.143 1.007 6.183 0 5 0 3.817 0 2.857 1.007 2.857 2.25c0 .98.597 1.81 1.429 2.12V7.5H0V12h10V7.5H5.714Zm-3.571 3c-.395 0-.714-.336-.714-.75s.32-.75.714-.75c.394 0 .714.336.714.75s-.32.75-.714.75Z"
            fill="currentColor" />
    </symbol>

    <symbol id="svg-sprite--board-info-12" viewBox="0 0 12 12">
        <path
            d="M11.01 0H1C.452 0 0 .492 0 1.092v9.816C0 11.508.451 12 1 12h10c.549 0 1-.492 1-1.092V1.092C12 .492 11.56 0 11.01 0ZM4.257 8.46c0 .168-.1.276-.253.276H1.76c-.154 0-.253-.108-.253-.276V7.368c0-.168.099-.276.253-.276h2.255c.154 0 .253.108.253.276V8.46h-.011Zm0-2.736c0 .168-.1.276-.253.276H1.76c-.154 0-.253-.108-.253-.276V4.632c0-.168.099-.276.253-.276h2.255c.154 0 .253.108.253.276v1.092h-.011Zm0-2.724c0 .168-.1.276-.253.276H1.76c-.154 0-.253-.108-.253-.276V1.908c0-.168.099-.276.253-.276h2.255c.154 0 .253.108.253.276V3h-.011Zm6.247 7.092c0 .168-.099.276-.253.276h-4.74c-.154 0-.253-.108-.253-.276V1.908c0-.168.099-.276.253-.276h4.751c.154 0 .253.108.253.276v8.184h-.01Z"
            fill="currentColor" />
    </symbol>

    <symbol id="svg-sprite-filled--help-12" viewBox="0 0 12 12">
        <circle cx="6" cy="6" r="5.25" stroke="currentColor" stroke-width="1.5" fill="none" />
        <path
            d="M5.395 6.759c0-.24.039-.45.117-.63.078-.186.171-.342.279-.468a4.85 4.85 0 0 1 .432-.432c.204-.186.354-.345.45-.477a.795.795 0 0 0 .153-.486c0-.246-.057-.429-.171-.549-.114-.12-.291-.18-.531-.18-.258 0-.444.078-.558.234-.108.15-.174.366-.198.648l-1.161-.261a1.51 1.51 0 0 1 .252-.792 1.61 1.61 0 0 1 .684-.549 2.508 2.508 0 0 1 1.035-.198c.588 0 1.062.144 1.422.432.366.288.549.684.549 1.188 0 .276-.042.507-.126.693a1.308 1.308 0 0 1-.297.45 4.494 4.494 0 0 1-.459.369c-.168.12-.3.225-.396.315a1.08 1.08 0 0 0-.342.819v.144H5.395v-.27Zm.522 2.295c-.468 0-.702-.234-.702-.702v-.135c0-.468.234-.702.702-.702h.126c.468 0 .702.234.702.702v.135c0 .468-.234.702-.702.702h-.126Z"
            fill="currentColor" />
    </symbol>

    <symbol id="svg-sprite-filled--info-12" viewBox="0 0 12 12">
        <circle cx="6" cy="6" r="5.25" stroke="currentColor" stroke-width="1.5" fill="none" />
        <path fill="currentColor" d="M6.75 9h-1.5V5.4h1.5zm-1.5-6h1.5v1.5h-1.5z" />
    </symbol>

    <!-- SearchPanel Icons -->
    <symbol id="svg-sprite--search-thin-16" viewBox="0 0 16 16">
        <path fill-rule="evenodd" clip-rule="evenodd"
            d="M10.591 11.551a6.5 6.5 0 1 1 .96-.96L15 14.041l-.96.959-3.449-3.449ZM12 6.5a5.5 5.5 0 1 1-11 0 5.5 5.5 0 0 1 11 0Z"
            fill="currentColor" />
    </symbol>

    <symbol id="svg-sprite--filters-12" viewBox="0 0 12 12">
        <path fill-rule="evenodd" clip-rule="evenodd"
            d="M7.5 4V0H9v1.25h3v1.5H9V4H7.5Zm-4 5.25H0v1.5h3.5v-1.5Zm8.5-2.5H5v-1.5h7v1.5Zm-12 0h2V8h1.5V4H2v1.25H0v1.5Zm12 2.5H6.5V8H5v4h1.5v-1.25H12v-1.5Zm-6-8H0v1.5h6v-1.5Z"
            fill="currentColor" />
    </symbol>

    <!-- ControlsPanel Icons -->
    <symbol id="svg-sprite--utility-chevron-left" viewBox="0 0 8 8">
        <path
            d="M5.854.854a.5.5 0 1 0-.708-.708l-3.5 3.5a.5.5 0 0 0 0 .708l3.5 3.5a.5.5 0 1 0 .708-.708L2.707 4z"
            fill="currentColor" />
    </symbol>

</svg>